<svg width="583" height="95" viewBox="0 0 583 95" fill="none" xmlns="http://www.w3.org/2000/svg">
<g filter="url(#filter0_d_1_408)">
<path d="M60.72 37.248L58.0863 38.6846L58.9391 40.248H60.72V37.248ZM24.424 39.12L21.7615 37.7376L24.424 39.12ZM24.424 64.288L21.7615 65.6704L21.7719 65.6904L21.7826 65.7103L24.424 64.288ZM32.432 72.608L30.9436 75.2127H30.9436L32.432 72.608ZM57.912 71.152L59.8191 73.4678L59.8325 73.4568L59.8458 73.4456L57.912 71.152ZM64.88 58.776L67.8157 59.394L68.5773 55.776H64.88V58.776ZM39.92 58.776H36.92V61.776H39.92V58.776ZM39.92 47.648V44.648H36.92V47.648H39.92ZM79.232 47.648H82.232V44.648H79.232V47.648ZM79.232 60.336L82.1783 60.901L82.232 60.6211V60.336H79.232ZM72.992 74.376L70.5827 72.5885L72.992 74.376ZM60.616 84.776L61.9872 87.4443L61.9942 87.4407L62.0012 87.437L60.616 84.776ZM24.736 83.944L23.2545 86.5527L23.2735 86.5635L23.2927 86.574L24.736 83.944ZM11.424 70.736L8.81532 72.2175L8.82219 72.2296L8.82918 72.2416L11.424 70.736ZM11.424 32.464L8.82121 30.9722L8.81532 30.9825L11.424 32.464ZM24.736 19.256L26.1929 21.8785L26.2038 21.8724L24.736 19.256ZM64.984 20.504L63.3199 23.0001L63.3299 23.0068L63.3399 23.0134L64.984 20.504ZM77.464 37.248V40.248H81.5633L80.3235 36.3407L77.464 37.248ZM63.3537 35.8114C61.4282 32.2813 58.7369 29.5325 55.2969 27.6487L52.4151 32.9113C54.7991 34.2169 56.6838 36.1134 58.0863 38.6846L63.3537 35.8114ZM55.2969 27.6487C51.8737 25.7741 47.9646 24.888 43.664 24.888V30.888C47.1287 30.888 50.0144 31.5966 52.4151 32.9113L55.2969 27.6487ZM43.664 24.888C38.8971 24.888 34.5507 25.9697 30.7124 28.2087L33.7356 33.3913C36.5533 31.7477 39.8336 30.888 43.664 30.888V24.888ZM30.7124 28.2087C26.8669 30.4519 23.8802 33.6572 21.7615 37.7376L27.0865 40.5024C28.7118 37.3721 30.9251 35.0308 33.7356 33.3913L30.7124 28.2087ZM21.7615 37.7376C19.6346 41.8338 18.616 46.4816 18.616 51.6H24.616C24.616 47.2891 25.4694 43.6169 27.0865 40.5024L21.7615 37.7376ZM18.616 51.6C18.616 56.8414 19.6285 61.5624 21.7615 65.6704L27.0865 62.9056C25.4755 59.8029 24.616 56.0652 24.616 51.6H18.616ZM21.7826 65.7103C23.9771 69.7858 27.0356 72.9796 30.9436 75.2127L33.9204 70.0033C31.0337 68.3537 28.7536 66.0009 27.0654 62.8657L21.7826 65.7103ZM30.9436 75.2127C34.8591 77.4502 39.3395 78.52 44.288 78.52V72.52C40.2232 72.52 36.7995 71.6485 33.9204 70.0033L30.9436 75.2127ZM44.288 78.52C50.3782 78.52 55.6392 76.9101 59.8191 73.4678L56.0049 68.8362C53.1128 71.2179 49.2911 72.52 44.288 72.52V78.52ZM59.8458 73.4456C63.9744 69.9646 66.5921 65.2058 67.8157 59.394L61.9444 58.158C60.9492 62.8849 58.9216 66.3768 55.9782 68.8584L59.8458 73.4456ZM64.88 55.776H39.92V61.776H64.88V55.776ZM42.92 58.776V47.648H36.92V58.776H42.92ZM39.92 50.648H79.232V44.648H39.92V50.648ZM76.232 47.648V60.336H82.232V47.648H76.232ZM76.2857 59.771C75.4032 64.3724 73.5141 68.6374 70.5827 72.5885L75.4013 76.1635C78.8485 71.5173 81.1194 66.4223 82.1783 60.901L76.2857 59.771ZM70.5827 72.5885C67.6819 76.4983 63.9162 79.676 59.2308 82.1149L62.0012 87.437C67.4384 84.6067 71.9235 80.8511 75.4013 76.1635L70.5827 72.5885ZM59.2448 82.1077C54.7226 84.4316 49.5852 85.624 43.768 85.624V91.624C50.4309 91.624 56.5254 90.2511 61.9872 87.4443L59.2448 82.1077ZM43.768 85.624C37.2285 85.624 31.3874 84.1721 26.1793 81.314L23.2927 86.574C29.4553 89.9559 36.3022 91.624 43.768 91.624V85.624ZM26.2175 81.3353C21.0664 78.41 17.0122 74.3891 14.0188 69.2304L8.82918 72.2416C12.3532 78.3149 17.1736 83.0993 23.2545 86.5527L26.2175 81.3353ZM14.0327 69.2545C11.1262 64.1367 9.64 58.2782 9.64 51.6H3.64C3.64 59.2045 5.34309 66.1033 8.81532 72.2175L14.0327 69.2545ZM9.64 51.6C9.64 44.9218 11.1262 39.0633 14.0327 33.9455L8.81532 30.9825C5.34309 37.0967 3.64 43.9955 3.64 51.6H9.64ZM14.0268 33.9558C17.0194 28.7347 21.0647 24.7275 26.1929 21.8785L23.2791 16.6335C17.1753 20.0245 12.346 24.8226 8.82123 30.9722L14.0268 33.9558ZM26.2038 21.8724C31.4122 18.9506 37.2109 17.472 43.664 17.472V11.472C36.2504 11.472 29.4305 13.1827 23.2682 16.6396L26.2038 21.8724ZM43.664 17.472C51.3318 17.472 57.8424 19.3484 63.3199 23.0001L66.6481 18.0078C60.0617 13.6169 52.3589 11.472 43.664 11.472V17.472ZM63.3399 23.0134C68.7647 26.5675 72.5142 31.5677 74.6045 38.1553L80.3235 36.3407C77.8378 28.5069 73.2673 22.3445 66.6281 17.9946L63.3399 23.0134ZM77.464 34.248H60.72V40.248H77.464V34.248ZM89.6921 43.488L87.0338 42.0975L87.0254 42.1137L87.0171 42.1299L89.6921 43.488ZM99.1561 33.088L97.6061 30.5194L97.5962 30.5254L97.5863 30.5315L99.1561 33.088ZM123.804 32.048L122.372 34.6839L122.383 34.6903L122.395 34.6966L123.804 32.048ZM131.604 38.6L129.189 40.3796L134.604 47.7287V38.6H131.604ZM131.604 30.384V27.384H128.604V30.384H131.604ZM146.268 30.384H149.268V27.384H146.268V30.384ZM146.268 88V91H149.268V88H146.268ZM131.604 88H128.604V91H131.604V88ZM131.604 79.576H134.604V69.9722L129.138 77.8684L131.604 79.576ZM123.804 86.336L125.213 88.9846L125.223 88.9793L125.233 88.9739L123.804 86.336ZM99.1561 85.192L97.5541 87.7285L97.5641 87.7347L97.574 87.7409L99.1561 85.192ZM89.6921 74.688L87.0088 76.0296L87.0211 76.0542L87.0338 76.0785L89.6921 74.688ZM129.524 50.144L126.885 51.5705L126.893 51.5858L126.902 51.6009L129.524 50.144ZM123.908 44.32L122.387 46.9058L122.416 46.9226L122.445 46.9388L123.908 44.32ZM108.828 44.216L107.331 41.6161V41.6161L108.828 44.216ZM103.212 50.04L100.603 48.5592L100.596 48.5711L100.59 48.5831L103.212 50.04ZM103.212 68.136L100.557 69.5332L100.58 69.5754L100.603 69.6168L103.212 68.136ZM108.828 74.064L107.273 76.6296L107.29 76.6398L107.307 76.6498L108.828 74.064ZM123.908 74.168L125.372 76.7868L125.401 76.7706L125.429 76.7538L123.908 74.168ZM129.524 68.344L132.147 69.8009L132.155 69.7858L132.163 69.7705L129.524 68.344ZM89.2601 58.984C89.2601 53.5598 90.3232 48.872 92.3671 44.8461L87.0171 42.1299C84.4851 47.1173 83.2601 52.7602 83.2601 58.984H89.2601ZM92.3504 44.8785C94.4818 40.8038 97.2793 37.7609 100.726 35.6445L97.5863 30.5315C93.129 33.2684 89.6171 37.1589 87.0338 42.0975L92.3504 44.8785ZM100.706 35.6566C104.237 33.526 108.168 32.448 112.572 32.448V26.448C107.131 26.448 102.118 27.7967 97.6061 30.5194L100.706 35.6566ZM112.572 32.448C116.463 32.448 119.696 33.2299 122.372 34.6839L125.237 29.4121C121.533 27.3994 117.279 26.448 112.572 26.448V32.448ZM122.395 34.6966C125.309 36.2463 127.546 38.15 129.189 40.3796L134.019 36.8204C131.78 33.7807 128.817 31.3164 125.213 29.3994L122.395 34.6966ZM134.604 38.6V30.384H128.604V38.6H134.604ZM131.604 33.384H146.268V27.384H131.604V33.384ZM143.268 30.384V88H149.268V30.384H143.268ZM146.268 85H131.604V91H146.268V85ZM134.604 88V79.576H128.604V88H134.604ZM129.138 77.8684C127.571 80.1305 125.352 82.0858 122.375 83.6981L125.233 88.9739C128.912 86.9808 131.893 84.4295 134.071 81.2836L129.138 77.8684ZM122.395 83.6874C119.637 85.1547 116.357 85.936 112.468 85.936V91.936C117.177 91.936 121.454 90.984 125.213 88.9846L122.395 83.6874ZM112.468 85.936C108.159 85.936 104.272 84.8364 100.738 82.6431L97.574 87.7409C102.083 90.5396 107.071 91.936 112.468 91.936V85.936ZM100.758 82.6555C97.2919 80.4664 94.485 77.3783 92.3504 73.2975L87.0338 76.0785C89.6139 81.011 93.1163 84.9256 97.5541 87.7285L100.758 82.6555ZM92.3754 73.3464C90.3252 69.246 89.2601 64.4825 89.2601 58.984H83.2601C83.2601 65.2722 84.483 70.978 87.0088 76.0296L92.3754 73.3464ZM134.604 59.192C134.604 55.2662 133.833 51.7231 132.147 48.6871L126.902 51.6009C127.988 53.5569 128.604 56.0458 128.604 59.192H134.604ZM132.163 48.7174C130.528 45.6928 128.266 43.3185 125.372 41.7012L122.445 46.9388C124.265 47.9561 125.747 49.4645 126.885 51.5705L132.163 48.7174ZM125.429 41.7342C122.616 40.0796 119.561 39.24 116.316 39.24V45.24C118.479 45.24 120.485 45.7871 122.387 46.9058L125.429 41.7342ZM116.316 39.24C113.1 39.24 110.086 40.0301 107.331 41.6161L110.325 46.8159C112.146 45.7672 114.124 45.24 116.316 45.24V39.24ZM107.331 41.6161C104.527 43.2309 102.292 45.5842 100.603 48.5592L105.821 51.5208C107.045 49.3651 108.554 47.8357 110.325 46.8159L107.331 41.6161ZM100.59 48.5831C98.9076 51.6109 98.1321 55.116 98.1321 58.984H104.132C104.132 55.9187 104.743 53.4611 105.835 51.4969L100.59 48.5831ZM98.1321 58.984C98.1321 62.8573 98.9093 66.4019 100.557 69.5332L105.867 66.7388C104.742 64.6007 104.132 62.044 104.132 58.984H98.1321ZM100.603 69.6168C102.285 72.5811 104.503 74.9508 107.273 76.6296L110.383 71.4984C108.577 70.4039 107.051 68.8216 105.821 66.6552L100.603 69.6168ZM107.307 76.6498C110.107 78.2969 113.126 79.144 116.316 79.144V73.144C114.237 73.144 112.264 72.6045 110.349 71.4782L107.307 76.6498ZM116.316 79.144C119.532 79.144 122.566 78.3545 125.372 76.7868L122.445 71.5492C120.535 72.6162 118.508 73.144 116.316 73.144V79.144ZM125.429 76.7538C128.269 75.0836 130.512 72.7432 132.147 69.8009L126.902 66.8871C125.763 68.9368 124.262 70.4791 122.387 71.5822L125.429 76.7538ZM132.163 69.7705C133.832 66.6831 134.604 63.121 134.604 59.192H128.604C128.604 62.335 127.989 64.8743 126.885 66.9174L132.163 69.7705ZM213.633 63.56V66.56H216.174L216.592 64.0532L213.633 63.56ZM171.512 63.56V60.56H168.252L168.523 63.8091L171.512 63.56ZM175.88 73.336L173.851 75.545L175.88 73.336ZM196.889 69.904V66.904H195.022L194.197 68.5784L196.889 69.904ZM212.592 69.904L215.466 70.766L216.625 66.904H212.592V69.904ZM203.025 83.632L204.825 86.032L204.836 86.0236L204.847 86.0151L203.025 83.632ZM170.68 85.296L169.192 87.9007L169.216 87.9146L169.241 87.9281L170.68 85.296ZM160.385 74.792L157.743 76.2143L157.752 76.2299L157.76 76.2455L160.385 74.792ZM160.385 43.488L157.743 42.0657L160.385 43.488ZM170.577 33.088L172.033 35.7105L170.577 33.088ZM200.32 32.984L198.878 35.6144L198.887 35.6193L198.896 35.6241L200.32 32.984ZM210.409 43.072L207.768 44.4968L207.782 44.5219L207.796 44.5468L210.409 43.072ZM198.969 53.784V56.784H202.025L201.968 53.7285L198.969 53.784ZM194.913 44.84L192.945 47.1051L192.963 47.12L192.98 47.1347L194.913 44.84ZM176.089 44.736L178.078 46.9818L178.082 46.9782L176.089 44.736ZM171.617 53.784L168.647 53.3597L168.157 56.784H171.617V53.784ZM211.049 57.944C211.049 59.8952 210.918 61.5982 210.673 63.0668L216.592 64.0532C216.902 62.1938 217.049 60.1528 217.049 57.944H211.049ZM213.633 60.56H171.512V66.56H213.633V60.56ZM168.523 63.8091C168.919 68.5624 170.624 72.5804 173.851 75.545L177.91 71.127C176.006 69.3769 174.799 66.8776 174.502 63.3109L168.523 63.8091ZM173.851 75.545C177.013 78.451 180.91 79.872 185.344 79.872V73.872C182.291 73.872 179.879 72.9356 177.91 71.127L173.851 75.545ZM185.344 79.872C188.483 79.872 191.358 79.1946 193.837 77.6984C196.323 76.1974 198.222 73.987 199.58 71.2295L194.197 68.5784C193.267 70.4664 192.098 71.7399 190.736 72.5616C189.367 73.388 187.614 73.872 185.344 73.872V79.872ZM196.889 72.904H212.592V66.904H196.889V72.904ZM209.719 69.042C208.241 73.9676 205.428 78.0171 201.202 81.2489L204.847 86.0151C210.05 82.0363 213.616 76.9337 215.466 70.766L209.719 69.042ZM201.225 81.232C197.111 84.3168 191.982 85.936 185.657 85.936V91.936C193.059 91.936 199.508 90.0192 204.825 86.032L201.225 81.232ZM185.657 85.936C180.563 85.936 176.074 84.8264 172.12 82.6639L169.241 87.9281C174.161 90.619 179.657 91.936 185.657 91.936V85.936ZM172.169 82.6913C168.29 80.4746 165.245 77.3768 163.009 73.3385L157.76 76.2455C160.516 81.2205 164.335 85.1254 169.192 87.9007L172.169 82.6913ZM163.026 73.3697C160.868 69.3623 159.745 64.6646 159.745 59.192H153.745C153.745 65.5061 155.048 71.2083 157.743 76.2143L163.026 73.3697ZM159.745 59.192C159.745 53.6436 160.871 48.9127 163.026 44.9103L157.743 42.0657C155.045 47.0766 153.745 52.8151 153.745 59.192H159.745ZM163.026 44.9103C165.188 40.8957 168.18 37.8515 172.033 35.7105L169.12 30.4655C164.237 33.1779 160.435 37.067 157.743 42.0657L163.026 44.9103ZM172.033 35.7105C175.897 33.5638 180.41 32.448 185.657 32.448V26.448C179.533 26.448 173.992 27.7588 169.12 30.4655L172.033 35.7105ZM185.657 32.448C190.69 32.448 195.071 33.5269 198.878 35.6144L201.763 30.3536C196.972 27.7264 191.578 26.448 185.657 26.448V32.448ZM198.896 35.6241C202.749 37.7035 205.689 40.6437 207.768 44.4968L213.049 41.6472C210.413 36.7643 206.628 32.9792 201.745 30.3439L198.896 35.6241ZM207.796 44.5468C209.935 48.3365 211.049 52.7725 211.049 57.944H217.049C217.049 51.8835 215.735 46.4049 213.021 41.5972L207.796 44.5468ZM201.968 53.7285C201.884 49.2041 200.204 45.374 196.845 42.5453L192.98 47.1347C194.89 48.7434 195.914 50.8759 195.969 53.8395L201.968 53.7285ZM196.88 42.5749C193.647 39.7676 189.704 38.408 185.24 38.408V44.408C188.403 44.408 190.909 45.3364 192.945 47.1051L196.88 42.5749ZM185.24 38.408C180.964 38.408 177.186 39.7464 174.095 42.4938L178.082 46.9782C179.983 45.2883 182.306 44.408 185.24 44.408V38.408ZM174.099 42.4902C171.034 45.2051 169.28 48.9269 168.647 53.3597L174.586 54.2083C175.062 50.8758 176.289 48.5656 178.078 46.9818L174.099 42.4902ZM171.617 56.784H198.969V50.784H171.617V56.784ZM239.236 11.04H242.236V8.04H239.236V11.04ZM239.236 88V91H242.236V88H239.236ZM224.676 88H221.676V91H224.676V88ZM224.676 11.04V8.04H221.676V11.04H224.676ZM236.236 11.04V88H242.236V11.04H236.236ZM239.236 85H224.676V91H239.236V85ZM227.676 88V11.04H221.676V88H227.676ZM224.676 14.04H239.236V8.04H224.676V14.04ZM254.557 21.128L252.436 23.2493L252.48 23.2935L252.526 23.3358L254.557 21.128ZM254.557 8.95999L256.633 11.126L256.635 11.1242L254.557 8.95999ZM267.349 8.95999L265.228 11.0813L265.272 11.1255L265.318 11.1678L267.349 8.95999ZM267.349 21.128L269.425 23.294L269.427 23.2922L267.349 21.128ZM268.181 30.384H271.181V27.384H268.181V30.384ZM268.181 88V91H271.181V88H268.181ZM253.621 88H250.621V91H253.621V88ZM253.621 30.384V27.384H250.621V30.384H253.621ZM261.005 20.52C259.119 20.52 257.717 19.9581 256.588 18.9202L252.526 23.3358C254.865 25.4873 257.761 26.52 261.005 26.52V20.52ZM256.679 19.0067C255.597 17.9246 255.061 16.6508 255.061 14.992H249.061C249.061 18.1866 250.19 21.0034 252.436 23.2493L256.679 19.0067ZM255.061 14.992C255.061 13.3347 255.594 12.1221 256.633 11.126L252.482 6.79403C250.193 8.98719 249.061 11.796 249.061 14.992H255.061ZM256.635 11.1242C257.769 10.0352 259.157 9.464 261.005 9.464V3.464C257.723 3.464 254.812 4.55684 252.48 6.79583L256.635 11.1242ZM261.005 9.464C262.854 9.464 264.18 10.0334 265.228 11.0813L269.471 6.83867C267.191 4.55857 264.287 3.464 261.005 3.464V9.464ZM265.318 11.1678C266.413 12.1752 266.949 13.3755 266.949 14.992H272.949C272.949 11.7551 271.752 8.93417 269.38 6.7522L265.318 11.1678ZM266.949 14.992C266.949 16.611 266.409 17.8719 265.272 18.9638L269.427 23.2922C271.756 21.0561 272.949 18.2264 272.949 14.992H266.949ZM265.274 18.962C264.233 19.9591 262.892 20.52 261.005 20.52V26.52C264.249 26.52 267.137 25.4863 269.425 23.294L265.274 18.962ZM265.181 30.384V88H271.181V30.384H265.181ZM268.181 85H253.621V91H268.181V85ZM256.621 88V30.384H250.621V88H256.621ZM253.621 33.384H268.181V27.384H253.621V33.384ZM282.463 43.592L285.095 45.0314L285.099 45.0229L285.104 45.0143L282.463 43.592ZM292.551 33.192L294.025 35.8045L294.041 35.7955L294.057 35.7864L292.551 33.192ZM324.999 34.856L323.159 37.226L323.179 37.2411L323.199 37.256L324.999 34.856ZM334.463 49.832V52.832H338.295L337.375 49.1118L334.463 49.832ZM318.759 49.832L315.913 50.7807L316.596 52.832H318.759V49.832ZM314.495 44.008L312.695 46.408L312.742 46.4438L312.791 46.4776L314.495 44.008ZM297.335 46.4L299.661 48.2938L299.672 48.2808L299.682 48.2676L297.335 46.4ZM297.335 71.984L294.987 73.8516L294.997 73.8647L295.008 73.8778L297.335 71.984ZM318.759 68.552V65.552H316.614L315.92 67.5809L318.759 68.552ZM334.463 68.552L337.369 69.2948L338.326 65.552H334.463V68.552ZM324.999 83.424L326.843 85.7902L324.999 83.424ZM292.551 85.296L291.044 87.8904L291.06 87.8995L291.076 87.9085L292.551 85.296ZM282.463 74.896L279.821 76.3183L279.826 76.3269L279.831 76.3354L282.463 74.896ZM281.823 59.192C281.823 53.6422 282.949 48.9545 285.095 45.0314L279.831 42.1526C277.123 47.1042 275.823 52.8165 275.823 59.192H281.823ZM285.104 45.0143C287.272 40.9872 290.239 37.9419 294.025 35.8045L291.076 30.5795C286.265 33.2954 282.506 37.1835 279.821 42.1697L285.104 45.0143ZM294.057 35.7864C297.847 33.5859 302.238 32.448 307.319 32.448V26.448C301.306 26.448 295.852 27.8061 291.044 30.5976L294.057 35.7864ZM307.319 32.448C313.941 32.448 319.145 34.1108 323.159 37.226L326.838 32.486C321.561 28.3905 314.979 26.448 307.319 26.448V32.448ZM323.199 37.256C327.29 40.3244 330.099 44.6852 331.55 50.5522L337.375 49.1118C335.637 42.0828 332.137 36.4596 326.799 32.456L323.199 37.256ZM334.463 46.832H318.759V52.832H334.463V46.832ZM321.605 48.8833C320.584 45.8204 318.787 43.3238 316.198 41.5384L312.791 46.4776C314.224 47.4655 315.27 48.8516 315.913 50.7807L321.605 48.8833ZM316.295 41.608C313.736 39.6894 310.642 38.824 307.215 38.824V44.824C309.611 44.824 311.37 45.4146 312.695 46.408L316.295 41.608ZM307.215 38.824C302.211 38.824 298.025 40.7127 294.987 44.5324L299.682 48.2676C301.497 45.986 303.898 44.824 307.215 44.824V38.824ZM295.008 44.5062C291.989 48.2152 290.695 53.2532 290.695 59.192H296.695C296.695 54.0374 297.827 50.5475 299.661 48.2938L295.008 44.5062ZM290.695 59.192C290.695 65.078 291.996 70.0917 294.987 73.8516L299.682 70.1164C297.82 67.775 296.695 64.2607 296.695 59.192H290.695ZM295.008 73.8778C298.056 77.6222 302.237 79.456 307.215 79.456V73.456C303.872 73.456 301.467 72.3084 299.661 70.0902L295.008 73.8778ZM307.215 79.456C310.607 79.456 313.675 78.6947 316.215 76.9554C318.77 75.2061 320.528 72.647 321.597 69.5231L315.92 67.5809C315.186 69.7263 314.119 71.1192 312.826 72.0046C311.518 72.8999 309.716 73.456 307.215 73.456V79.456ZM318.759 71.552H334.463V65.552H318.759V71.552ZM331.556 67.8092C330.112 73.4585 327.303 77.8242 323.154 81.0578L326.843 85.7902C332.123 81.6745 335.624 76.1255 337.369 69.2948L331.556 67.8092ZM323.154 81.0578C319.059 84.25 313.849 85.936 307.319 85.936V91.936C314.932 91.936 321.509 89.9474 326.843 85.7902L323.154 81.0578ZM307.319 85.936C302.224 85.936 297.821 84.826 294.025 82.6835L291.076 87.9085C295.878 90.6194 301.32 91.936 307.319 91.936V85.936ZM294.057 82.7016C290.241 80.4856 287.263 77.4222 285.095 73.4566L279.831 76.3354C282.515 81.2444 286.263 85.1143 291.044 87.8904L294.057 82.7016ZM285.104 73.4737C282.949 69.4712 281.823 64.7404 281.823 59.192H275.823C275.823 65.5689 277.123 71.3074 279.821 76.3183L285.104 73.4737ZM381.246 86.128L380.059 88.883L380.067 88.8866L380.076 88.8903L381.246 86.128ZM371.678 78.64L369.248 80.3984L371.678 78.64ZM368.038 67.096V64.096H364.991L365.039 67.1429L368.038 67.096ZM383.638 67.096L386.631 66.8872L386.436 64.096H383.638V67.096ZM386.758 74.168L384.72 76.3693L384.74 76.3877L384.76 76.4058L386.758 74.168ZM402.67 74.376L404.575 76.6942L404.599 76.6742L404.623 76.6538L402.67 74.376ZM403.606 62.624L401.431 64.6902L403.606 62.624ZM398.614 59.4L397.433 62.1574L397.491 62.1825L397.55 62.205L398.614 59.4ZM390.502 56.696L389.656 59.5741L389.675 59.5796L389.693 59.5849L390.502 56.696ZM378.958 52.64L377.669 55.3486L377.707 55.3669L377.746 55.3841L378.958 52.64ZM371.366 46.504L368.966 48.304L368.992 48.3377L369.018 48.3707L371.366 46.504ZM371.47 24.248L373.958 25.9246L371.47 24.248ZM380.518 16.968L381.7 19.7254L381.721 19.7166L381.741 19.7074L380.518 16.968ZM412.03 19.88L410.169 22.2328L410.188 22.2481L410.208 22.2631L412.03 19.88ZM419.83 35.064V38.064H423.062L422.822 34.8412L419.83 35.064ZM403.814 35.064L400.819 35.2304L400.976 38.064H403.814V35.064ZM400.59 28.928L398.638 31.2058L398.681 31.243L398.726 31.2785L400.59 28.928ZM385.926 28.616L383.997 26.3189L383.974 26.3383L383.951 26.3583L385.926 28.616ZM385.302 39.848L383.125 41.9112L383.18 41.9701L383.239 42.0259L385.302 39.848ZM390.086 42.968L388.868 45.7094L388.928 45.7362L388.989 45.7603L390.086 42.968ZM398.198 45.672L397.336 48.5455L397.344 48.5478L397.352 48.5501L398.198 45.672ZM417.438 56.072L415.067 57.9097L417.438 56.072ZM417.646 77.808L415.079 76.2567H415.079L417.646 77.808ZM408.806 85.816L410.148 88.4993L410.167 88.4898L410.186 88.48L408.806 85.816ZM394.974 85.728C390.259 85.728 386.089 84.9218 382.417 83.3657L380.076 88.8903C384.585 90.8008 389.567 91.728 394.974 91.728V85.728ZM382.434 83.373C378.864 81.8341 376.122 79.6636 374.109 76.8816L369.248 80.3984C371.95 84.1337 375.586 86.9552 380.059 88.883L382.434 83.373ZM374.109 76.8816C372.15 74.173 371.099 70.9377 371.038 67.0491L365.039 67.1429C365.117 72.129 366.492 76.5897 369.248 80.3984L374.109 76.8816ZM368.038 70.096H383.638V64.096H368.038V70.096ZM380.646 67.3048C380.897 70.9081 382.193 74.0296 384.72 76.3693L388.797 71.9667C387.579 70.8397 386.796 69.2466 386.631 66.8872L380.646 67.3048ZM384.76 76.4058C387.391 78.7548 390.809 79.768 394.662 79.768V73.768C391.86 73.768 390.008 73.0479 388.756 71.9302L384.76 76.4058ZM394.662 79.768C398.51 79.768 401.934 78.8633 404.575 76.6942L400.766 72.0578C399.524 73.078 397.61 73.768 394.662 73.768V79.768ZM404.623 76.6538C407.252 74.4002 408.582 71.4079 408.582 67.928H402.582C402.582 69.7175 401.972 71.0238 400.718 72.0982L404.623 76.6538ZM408.582 67.928C408.582 65.1127 407.695 62.5725 405.781 60.5578L401.431 64.6902C402.152 65.4489 402.582 66.4446 402.582 67.928H408.582ZM405.781 60.5578C404.117 58.806 402.057 57.4974 399.678 56.595L397.55 62.205C399.193 62.8279 400.461 63.6686 401.431 64.6902L405.781 60.5578ZM399.796 56.6426C397.678 55.735 394.83 54.7923 391.311 53.8071L389.693 59.5849C393.108 60.541 395.668 61.401 397.433 62.1574L399.796 56.6426ZM391.349 53.8179C386.703 52.4515 382.99 51.1415 380.171 49.8959L377.746 55.3841C380.89 56.7731 384.872 58.1671 389.656 59.5741L391.349 53.8179ZM380.248 49.9314C377.777 48.7549 375.601 47.0096 373.715 44.6373L369.018 48.3707C371.431 51.4064 374.315 53.7518 377.669 55.3486L380.248 49.9314ZM373.766 44.704C372.184 42.5942 371.246 39.6139 371.246 35.48H365.246C365.246 40.4981 366.389 44.8671 368.966 48.304L373.766 44.704ZM371.246 35.48C371.246 31.7057 372.181 28.5612 373.958 25.9246L368.983 22.5714C366.461 26.3134 365.246 30.6569 365.246 35.48H371.246ZM373.958 25.9246C375.754 23.2602 378.294 21.1854 381.7 19.7254L379.337 14.2106C374.978 16.0786 371.486 18.8571 368.983 22.5714L373.958 25.9246ZM381.741 19.7074C385.178 18.1732 389.187 17.368 393.83 17.368V11.368C388.49 11.368 383.624 12.2962 379.295 14.2286L381.741 19.7074ZM393.83 17.368C400.824 17.368 406.18 19.0776 410.169 22.2328L413.892 17.5271C408.59 13.3331 401.812 11.368 393.83 11.368V17.368ZM410.208 22.2631C414.169 25.2921 416.41 29.5268 416.839 35.2868L422.822 34.8412C422.28 27.5666 419.321 21.6786 413.853 17.4969L410.208 22.2631ZM419.83 32.064H403.814V38.064H419.83V32.064ZM406.81 34.8976C406.622 31.5197 405.117 28.6889 402.455 26.5775L398.726 31.2785C400.085 32.3564 400.729 33.6163 400.819 35.2304L406.81 34.8976ZM402.543 26.6502C399.922 24.4039 396.564 23.432 392.79 23.432V29.432C395.535 29.432 397.376 30.1241 398.638 31.2058L402.543 26.6502ZM392.79 23.432C389.427 23.432 386.397 24.3023 383.997 26.3189L387.856 30.9131C388.922 30.0177 390.468 29.432 392.79 29.432V23.432ZM383.951 26.3583C381.476 28.5235 380.43 31.5588 380.43 34.96H386.43C386.43 32.8145 387.048 31.6205 387.902 30.8737L383.951 26.3583ZM380.43 34.96C380.43 37.6101 381.309 39.9954 383.125 41.9112L387.48 37.7848C386.799 37.066 386.43 36.1926 386.43 34.96H380.43ZM383.239 42.0259C384.834 43.5365 386.724 44.7566 388.868 45.7094L391.305 40.2266C389.705 39.5154 388.406 38.6555 387.366 37.6701L383.239 42.0259ZM388.989 45.7603C391.044 46.5673 393.839 47.4962 397.336 48.5455L399.06 42.7985C395.625 41.7678 393.012 40.894 391.183 40.1757L388.989 45.7603ZM397.352 48.5501C401.986 49.9131 405.68 51.2511 408.477 52.5522L411.008 47.1118C407.842 45.6396 403.84 44.2043 399.045 42.7939L397.352 48.5501ZM408.477 52.5522C410.996 53.7236 413.191 55.4885 415.067 57.9097L419.81 54.2343C417.387 51.1089 414.452 48.7137 411.008 47.1118L408.477 52.5522ZM415.067 57.9097C416.706 60.0238 417.662 62.9596 417.662 66.992H423.662C423.662 62.0111 422.47 57.6669 419.81 54.2343L415.067 57.9097ZM417.662 66.992C417.662 70.327 416.807 73.396 415.079 76.2567L420.214 79.3593C422.507 75.564 423.662 71.4223 423.662 66.992H417.662ZM415.079 76.2567C413.388 79.0543 410.881 81.3631 407.427 83.152L410.186 88.48C414.497 86.2475 417.883 83.2177 420.214 79.3593L415.079 76.2567ZM407.465 83.1327C404.083 84.8234 399.952 85.728 394.974 85.728V91.728C400.674 91.728 405.764 90.6913 410.148 88.4993L407.465 83.1327ZM450.237 42.344V39.344H447.237V42.344H450.237ZM451.589 74.48L449.468 76.6013L449.55 76.6828L449.637 76.7578L451.589 74.48ZM463.133 75.728H466.133V72.728H463.133V75.728ZM463.133 88V91H466.133V88H463.133ZM435.573 42.344H438.573V39.344H435.573V42.344ZM428.709 42.344H425.709V45.344H428.709V42.344ZM428.709 30.384V27.384H425.709V30.384H428.709ZM435.573 30.384V33.384H438.573V30.384H435.573ZM435.573 16.136V13.136H432.573V16.136H435.573ZM450.237 16.136H453.237V13.136H450.237V16.136ZM450.237 30.384H447.237V33.384H450.237V30.384ZM463.133 30.384H466.133V27.384H463.133V30.384ZM463.133 42.344V45.344H466.133V42.344H463.133ZM447.237 42.344V70.216H453.237V42.344H447.237ZM447.237 70.216C447.237 72.5443 447.769 74.9026 449.468 76.6013L453.711 72.3587C453.607 72.2548 453.237 71.7704 453.237 70.216H447.237ZM449.637 76.7578C451.429 78.2937 453.917 78.728 456.373 78.728V72.728C454.392 72.728 453.691 72.3303 453.542 72.2022L449.637 76.7578ZM456.373 78.728H463.133V72.728H456.373V78.728ZM460.133 75.728V88H466.133V75.728H460.133ZM463.133 85H453.981V91H463.133V85ZM453.981 85C448.287 85 444.57 83.6158 442.266 81.3765C439.978 79.1527 438.573 75.5901 438.573 70.112H432.573C432.573 76.5593 434.237 81.9406 438.085 85.6795C441.916 89.4029 447.404 91 453.981 91V85ZM438.573 70.112V42.344H432.573V70.112H438.573ZM435.573 39.344H428.709V45.344H435.573V39.344ZM431.709 42.344V30.384H425.709V42.344H431.709ZM428.709 33.384H435.573V27.384H428.709V33.384ZM438.573 30.384V16.136H432.573V30.384H438.573ZM435.573 19.136H450.237V13.136H435.573V19.136ZM447.237 16.136V30.384H453.237V16.136H447.237ZM450.237 33.384H463.133V27.384H450.237V33.384ZM460.133 30.384V42.344H466.133V30.384H460.133ZM463.133 39.344H450.237V45.344H463.133V39.344ZM473.294 43.488L470.635 42.0975L470.627 42.1137L470.619 42.1299L473.294 43.488ZM482.758 33.088L481.208 30.5194L481.198 30.5254L481.188 30.5315L482.758 33.088ZM507.406 32.048L505.973 34.6839L505.985 34.6903L505.997 34.6966L507.406 32.048ZM515.206 38.6L512.791 40.3796L518.206 47.7287V38.6H515.206ZM515.206 30.384V27.384H512.206V30.384H515.206ZM529.87 30.384H532.87V27.384H529.87V30.384ZM529.87 88V91H532.87V88H529.87ZM515.206 88H512.206V91H515.206V88ZM515.206 79.576H518.206V69.9722L512.739 77.8684L515.206 79.576ZM507.406 86.336L508.815 88.9846L508.825 88.9793L508.835 88.9739L507.406 86.336ZM482.758 85.192L481.156 87.7285L481.166 87.7347L481.176 87.7409L482.758 85.192ZM473.294 74.688L470.61 76.0296L470.623 76.0542L470.635 76.0785L473.294 74.688ZM513.126 50.144L510.487 51.5705L510.495 51.5858L510.503 51.6009L513.126 50.144ZM507.51 44.32L505.989 46.9058L506.017 46.9226L506.046 46.9388L507.51 44.32ZM492.43 44.216L490.933 41.6161V41.6161L492.43 44.216ZM486.814 50.04L484.205 48.5592L484.198 48.5711L484.191 48.5831L486.814 50.04ZM486.814 68.136L484.159 69.5332L484.181 69.5754L484.205 69.6168L486.814 68.136ZM492.43 74.064L490.875 76.6296L490.892 76.6398L490.909 76.6498L492.43 74.064ZM507.51 74.168L508.973 76.7868L509.002 76.7706L509.031 76.7538L507.51 74.168ZM513.126 68.344L515.748 69.8009L515.757 69.7858L515.765 69.7705L513.126 68.344ZM472.862 58.984C472.862 53.5598 473.925 48.872 475.969 44.8461L470.619 42.1299C468.087 47.1173 466.862 52.7602 466.862 58.984H472.862ZM475.952 44.8785C478.083 40.8038 480.881 37.7609 484.327 35.6445L481.188 30.5315C476.731 33.2684 473.219 37.1589 470.635 42.0975L475.952 44.8785ZM484.308 35.6566C487.838 33.526 491.77 32.448 496.174 32.448V26.448C490.732 26.448 485.72 27.7967 481.208 30.5194L484.308 35.6566ZM496.174 32.448C500.064 32.448 503.298 33.2299 505.973 34.6839L508.838 29.4121C505.135 27.3994 500.881 26.448 496.174 26.448V32.448ZM505.997 34.6966C508.91 36.2463 511.148 38.15 512.791 40.3796L517.621 36.8204C515.381 33.7807 512.418 31.3164 508.815 29.3994L505.997 34.6966ZM518.206 38.6V30.384H512.206V38.6H518.206ZM515.206 33.384H529.87V27.384H515.206V33.384ZM526.87 30.384V88H532.87V30.384H526.87ZM529.87 85H515.206V91H529.87V85ZM518.206 88V79.576H512.206V88H518.206ZM512.739 77.8684C511.173 80.1305 508.953 82.0858 505.977 83.6981L508.835 88.9739C512.514 86.9808 515.494 84.4295 517.672 81.2836L512.739 77.8684ZM505.997 83.6874C503.238 85.1547 499.958 85.936 496.07 85.936V91.936C500.779 91.936 505.056 90.984 508.815 88.9846L505.997 83.6874ZM496.07 85.936C491.76 85.936 487.874 84.8364 484.34 82.6431L481.176 87.7409C485.685 90.5396 490.672 91.936 496.07 91.936V85.936ZM484.36 82.6555C480.893 80.4664 478.087 77.3783 475.952 73.2975L470.635 76.0785C473.215 81.011 476.718 84.9256 481.156 87.7285L484.36 82.6555ZM475.977 73.3464C473.927 69.246 472.862 64.4825 472.862 58.984H466.862C466.862 65.2722 468.085 70.978 470.61 76.0296L475.977 73.3464ZM518.206 59.192C518.206 55.2662 517.435 51.7231 515.748 48.6871L510.503 51.6009C511.59 53.5569 512.206 56.0458 512.206 59.192H518.206ZM515.765 48.7174C514.13 45.6928 511.867 43.3185 508.973 41.7012L506.046 46.9388C507.867 47.9561 509.348 49.4645 510.487 51.5705L515.765 48.7174ZM509.031 41.7342C506.218 40.0796 503.163 39.24 499.918 39.24V45.24C502.08 45.24 504.087 45.7871 505.989 46.9058L509.031 41.7342ZM499.918 39.24C496.702 39.24 493.688 40.0301 490.933 41.6161L493.927 46.8159C495.748 45.7672 497.726 45.24 499.918 45.24V39.24ZM490.933 41.6161C488.128 43.2309 485.893 45.5842 484.205 48.5592L489.423 51.5208C490.646 49.3651 492.155 47.8357 493.927 46.8159L490.933 41.6161ZM484.191 48.5831C482.509 51.6109 481.734 55.116 481.734 58.984H487.734C487.734 55.9187 488.345 53.4611 489.436 51.4969L484.191 48.5831ZM481.734 58.984C481.734 62.8573 482.511 66.4019 484.159 69.5332L489.468 66.7388C488.343 64.6007 487.734 62.044 487.734 58.984H481.734ZM484.205 69.6168C485.887 72.5811 488.105 74.9508 490.875 76.6296L493.985 71.4984C492.179 70.4039 490.652 68.8216 489.423 66.6552L484.205 69.6168ZM490.909 76.6498C493.709 78.2969 496.727 79.144 499.918 79.144V73.144C497.839 73.144 495.865 72.6045 493.951 71.4782L490.909 76.6498ZM499.918 79.144C503.133 79.144 506.168 78.3545 508.973 76.7868L506.046 71.5492C504.137 72.6162 502.11 73.144 499.918 73.144V79.144ZM509.031 76.7538C511.87 75.0836 514.114 72.7432 515.748 69.8009L510.503 66.8871C509.365 68.9368 507.864 70.4791 505.989 71.5822L509.031 76.7538ZM515.765 69.7705C517.434 66.6831 518.206 63.121 518.206 59.192H512.206C512.206 62.335 511.591 64.8743 510.487 66.9174L515.765 69.7705ZM558.65 39.328H555.65V49.9528L561.207 40.897L558.65 39.328ZM565.93 32.152L564.448 29.5436L564.435 29.551L564.422 29.5585L565.93 32.152ZM576.33 29.552H579.33V26.552H576.33V29.552ZM576.33 44.84V47.84H579.33V44.84H576.33ZM562.082 48.064L560.061 45.8471L560.044 45.8622L560.028 45.8775L562.082 48.064ZM558.65 88V91H561.65V88H558.65ZM544.09 88H541.09V91H544.09V88ZM544.09 30.384V27.384H541.09V30.384H544.09ZM558.65 30.384H561.65V27.384H558.65V30.384ZM561.207 40.897C562.83 38.2528 564.902 36.2198 567.438 34.7455L564.422 29.5585C560.995 31.5509 558.214 34.3019 556.093 37.7589L561.207 40.897ZM567.412 34.7604C569.964 33.3103 572.91 32.552 576.33 32.552V26.552C571.984 26.552 567.997 27.527 564.448 29.5436L567.412 34.7604ZM573.33 29.552V44.84H579.33V29.552H573.33ZM576.33 41.84H572.482V47.84H576.33V41.84ZM572.482 41.84C567.481 41.84 563.17 43.0124 560.061 45.8471L564.103 50.2809C565.709 48.817 568.332 47.84 572.482 47.84V41.84ZM560.028 45.8775C556.828 48.8836 555.65 53.6781 555.65 59.296H561.65C561.65 54.2365 562.76 51.543 564.136 50.2505L560.028 45.8775ZM555.65 59.296V88H561.65V59.296H555.65ZM558.65 85H544.09V91H558.65V85ZM547.09 88V30.384H541.09V88H547.09ZM544.09 33.384H558.65V27.384H544.09V33.384ZM555.65 30.384V39.328H561.65V30.384H555.65Z" fill="white"/>
</g>
<defs>
<filter id="filter0_d_1_408" x="0.640137" y="0.463989" width="581.69" height="94.472" filterUnits="userSpaceOnUse" color-interpolation-filters="sRGB">
<feFlood flood-opacity="0" result="BackgroundImageFix"/>
<feColorMatrix in="SourceAlpha" type="matrix" values="0 0 0 0 0 0 0 0 0 0 0 0 0 0 0 0 0 0 127 0" result="hardAlpha"/>
<feOffset/>
<feGaussianBlur stdDeviation="3"/>
<feComposite in2="hardAlpha" operator="out"/>
<feColorMatrix type="matrix" values="0 0 0 0 0 0 0 0 0 0 0 0 0 0 0 0 0 0 0.61 0"/>
<feBlend mode="normal" in2="BackgroundImageFix" result="effect1_dropShadow_1_408"/>
<feBlend mode="normal" in="SourceGraphic" in2="effect1_dropShadow_1_408" result="shape"/>
</filter>
</defs>
</svg>
